<svg xmlns="http://www.w3.org/2000/svg" width="154.866" height="80.332" viewBox="0 0 154.866 80.332">
  <g id="Grupo_10481" data-name="Grupo 10481" transform="translate(-607.567 -229.168)">
    <path id="Icon_feather-shield" data-name="Icon feather-shield" d="M36.933,80.332S67.866,64.866,67.866,41.666V14.6L36.933,3,6,14.6V41.666C6,64.866,36.933,80.332,36.933,80.332Z" transform="translate(603.067 227.668)" fill="none" stroke="#000" stroke-linecap="round" stroke-linejoin="round" stroke-width="3"/>
    <g id="Grupo_10291" data-name="Grupo 10291" transform="translate(-545.718 -129)">
      <path id="Trazado_3" data-name="Trazado 3" d="M21.093-147.548a1.27,1.27,0,0,1-1.414.116l-3.427-1.927v-22.723h5.3v8.868h1.073l5.554-8.868h4a1.121,1.121,0,0,1,1.137.911,1.719,1.719,0,0,1-.409,1.552L27.2-160.751l7.732,11.393H28.5l-5.681-8.71H21.554v9.2A1.514,1.514,0,0,1,21.093-147.548Z" transform="translate(1160.124 556.701)" fill="#161d4b"/>
      <rect id="Rect치ngulo_5" data-name="Rect치ngulo 5" width="5.347" height="3.895" transform="translate(1176.376 379.74)" fill="#ffd500"/>
      <rect id="Rect치ngulo_6" data-name="Rect치ngulo 6" width="6.321" height="3.895" transform="translate(1188.738 408.105)" fill="#ffd500"/>
    </g>
    <path id="Icon_ionic-ios-phone-portrait" data-name="Icon ionic-ios-phone-portrait" d="M43.216,2.25H15.839a5.68,5.68,0,0,0-5.714,5.679V73.7a5.848,5.848,0,0,0,5.714,5.886H43.2A5.733,5.733,0,0,0,48.774,73.7V7.929A5.539,5.539,0,0,0,43.216,2.25ZM26.869,6.22h5.178a.69.69,0,0,1,0,1.381H26.869a.69.69,0,1,1,0-1.381Zm2.676,70.773a3,3,0,1,1,3-3A3.006,3.006,0,0,1,29.544,76.993Zm16.14-8.458H13.232a.346.346,0,0,1-.345-.345V11.4a.346.346,0,0,1,.345-.345H45.684a.346.346,0,0,1,.345.345V68.189A.346.346,0,0,1,45.684,68.535Z" transform="translate(713.659 228.418)"/>
    <circle id="Elipse_40" data-name="Elipse 40" cx="4" cy="4" r="4" transform="translate(682 265)" fill="#161d4b"/>
    <circle id="Elipse_41" data-name="Elipse 41" cx="4" cy="4" r="4" transform="translate(693 265)" fill="#161d4b"/>
    <circle id="Elipse_42" data-name="Elipse 42" cx="4" cy="4" r="4" transform="translate(704 265)" fill="#161d4b"/>
  </g>
</svg>
